<?xml version="1.0" encoding="utf-8"?>
<svg width="1200pt" height="1200pt" version="1.1" viewBox="0 0 1200 1200" xmlns="http://www.w3.org/2000/svg">
  <g>
    <path d="M 423.519 785.301 C 312.499 793.204 265.29 1015.995 145.442 1093.935 C 140.727 1075.577 117.083 1081.21 106.065 1070.583 C 124.003 946.73 234.67 840.451 243.234 749.62 C 226.716 755.287 220.933 770.543 194.404 767.279 L 198.691 742.369 L 178.775 728.408 C 340.281 540.144 587.577 140.96 883.303 274.22 L 960.984 277.636 L 882.512 319.154 C 754.106 479.738 699.829 722.097 556.736 769.514 C 467.92 787.954 441.867 783.988 423.511 785.32 L 423.519 785.301 Z M 810.036 289.174 C 798.452 289.174 789.136 299.204 789.136 311.662 C 789.136 324.072 798.452 333.978 810.036 333.978 C 821.839 333.978 831.134 324.072 831.134 311.662 C 831.154 299.204 821.839 289.174 810.036 289.174 Z" fill-rule="evenodd" style=""/>
    <path d="M 925.168 437.573 C 919.224 437.573 913.622 433.718 911.354 427.435 C 908.431 419.298 912.222 410.154 919.861 407.012 C 940.999 398.327 961.384 382.418 979.861 362.607 C 923.155 315.361 861.163 246.169 877.978 178.837 C 886.285 145.559 907.404 128.155 936.006 131.482 C 951.58 133.21 968.592 141.45 983.633 152.934 C 996.719 131.208 1014.304 112.89 1032.108 107.665 C 1044.424 104.062 1074.763 101.704 1090.651 157.209 C 1104.388 205.216 1073.678 292.126 1023.648 358.012 C 1044.156 373.351 1063.283 385.809 1077.037 393.856 C 1084.202 398.048 1086.829 407.658 1082.898 415.329 C 1078.992 422.98 1069.99 425.784 1062.807 421.587 C 1059.865 419.857 1034.84 405.018 1003.95 381.695 C 981.604 406.165 956.542 425.805 930.489 436.508 C 928.721 437.247 926.923 437.584 925.168 437.584 L 925.168 437.573 Z M 929.369 162.693 C 917.748 162.693 910.717 170.364 906.555 186.991 C 894.201 236.495 946.447 295.21 999.516 339.087 C 1044.258 279.994 1072.444 201.953 1062.279 166.465 C 1057.487 149.625 1050.85 138.902 1044.572 137.783 C 1038.258 136.748 1025.741 144.109 1012.576 163.413 C 1010.13 166.996 1007.919 170.603 1005.927 174.184 C 1017.787 188.262 1025.761 203.812 1026.454 217.574 C 1027.283 234.417 1017.376 247.245 1000.582 251.058 C 981.911 255.318 967.224 246.422 963.12 228.468 C 960.318 216.141 963.196 198.922 969.826 181.284 C 960.531 173.485 949.633 166.831 938.327 163.942 C 935.096 163.113 932.114 162.693 929.371 162.693 L 929.369 162.693 Z M 992.884 207.202 C 991.503 213.336 991.188 218.098 991.779 220.669 C 992.216 220.52 993.143 220.416 994.465 220.142 C 996.695 219.634 997.427 219.023 997.427 219.023 C 997.781 216.731 996.103 212.431 992.884 207.202 Z" style=""/>
    <g id="svgGroup" stroke-linecap="round" fill-rule="evenodd" font-size="9pt" stroke="#000" stroke-width="0.25mm" fill="#000" style="stroke: rgb(0, 0, 0); stroke-width: 0.25mm; fill: rgb(0, 0, 0);" transform="matrix(3.669704, 0, 0, 3.918366, -1011.845093, 463.156525)">
      <path d="M 410.059 32.814 L 410.059 0.49 L 395.41 0.49 L 395.41 2.931 L 402.734 2.931 L 402.734 55.666 C 402.738 56.266 402.698 56.864 402.613 57.458 C 402.395 58.909 401.884 59.944 401.081 60.563 C 400.813 60.768 400.514 60.928 400.195 61.037 C 399.888 61.136 399.573 61.213 399.255 61.267 C 398.3 61.439 397.019 61.525 395.41 61.525 L 395.41 63.966 L 407.715 63.966 L 408.594 57.521 C 410.853 61.282 414.654 63.857 418.985 64.559 C 419.747 64.698 420.516 64.793 421.289 64.845 C 421.586 64.883 421.883 64.91 422.182 64.927 C 422.372 64.938 422.563 64.943 422.754 64.943 C 427.957 65.032 432.961 62.944 436.558 59.183 C 436.779 58.959 436.995 58.731 437.207 58.498 C 440.009 55.269 441.803 51.288 442.365 47.05 C 442.576 45.602 442.68 44.14 442.676 42.677 C 442.693 40.382 442.461 38.091 441.983 35.846 C 441.316 32.819 440.165 30.178 438.531 27.923 C 438.008 27.202 437.435 26.52 436.816 25.88 C 434.014 23.03 430.173 21.444 426.177 21.487 C 426.11 21.486 426.044 21.486 425.977 21.486 C 423.777 21.455 421.589 21.82 419.519 22.566 C 416.315 23.767 413.755 25.969 411.838 29.173 C 411.474 29.784 411.141 30.412 410.84 31.056 C 410.593 31.498 410.378 31.957 410.196 32.429 C 410.148 32.556 410.102 32.685 410.059 32.814 Z M 428.264 26.823 C 426.668 25.842 424.822 25.345 422.949 25.392 C 420.28 25.392 417.903 26.303 415.82 28.126 C 414.241 29.569 412.98 31.325 412.119 33.283 C 411.347 34.986 410.782 36.921 410.424 39.087 C 410.103 41.114 409.948 43.164 409.961 45.216 C 409.955 46.807 410.063 48.397 410.283 49.973 C 410.505 51.579 410.888 53.159 411.426 54.689 C 412.648 57.842 414.395 60.041 416.667 61.285 C 418.239 62.118 419.998 62.537 421.777 62.501 C 421.865 62.501 421.954 62.501 422.042 62.499 C 423.757 62.479 425.442 62.044 426.953 61.232 C 427.182 61.105 427.408 60.971 427.628 60.829 C 430.983 58.671 433.087 54.882 433.94 49.463 C 434.243 47.443 434.388 45.403 434.375 43.361 C 434.379 41.995 434.307 40.63 434.16 39.272 C 434.012 37.883 433.757 36.508 433.398 35.158 C 433.344 34.939 433.286 34.721 433.226 34.504 C 432.203 30.837 430.549 28.276 428.264 26.823 Z" vector-effect="non-scaling-stroke" style="fill: rgb(255, 249, 249); stroke: rgb(255, 255, 255);"/>
    </g>
    <g id="g-1" stroke-linecap="round" fill-rule="evenodd" font-size="9pt" stroke="#000" stroke-width="0.25mm" fill="#000" style="stroke: rgb(0, 0, 0); stroke-width: 0.25mm; fill: rgb(0, 0, 0);" transform="matrix(3.669704, 0, 0, 3.918366, -982.623901, 213.817001)">
      <path d="M 458.754 80.059 L 451.918 80.059 L 451.918 43.438 L 463.148 43.438 L 463.148 40.996 L 451.918 40.996 L 451.918 40.41 C 451.918 29.277 453.578 22.962 456.898 21.465 C 457.55 21.172 458.253 21.008 458.967 20.983 C 459.059 20.979 459.15 20.977 459.242 20.977 C 461.26 20.977 462.953 22.181 464.32 24.59 C 464.524 24.953 464.732 25.314 464.945 25.673 C 465.601 26.776 466.13 27.549 466.532 27.992 C 466.631 28.105 466.741 28.208 466.859 28.301 C 467.38 28.692 467.966 28.887 468.617 28.887 C 470.524 28.887 471.738 28.169 472.26 26.733 C 472.329 26.544 472.384 26.35 472.426 26.153 C 472.491 25.827 472.523 25.534 472.523 25.274 C 472.523 23.235 471.358 21.57 469.027 20.278 C 468.577 20.03 468.114 19.807 467.64 19.61 C 465.752 18.893 463.636 18.535 461.293 18.535 C 459.253 18.508 457.224 18.841 455.3 19.519 C 452.099 20.688 449.54 22.9 447.621 26.153 C 446.576 28.007 445.813 30.006 445.356 32.084 C 444.848 34.304 444.594 36.754 444.594 39.434 L 444.594 40.996 L 437.758 40.996 L 437.758 43.438 L 444.594 43.438 L 444.594 74.2 C 444.598 74.8 444.557 75.399 444.472 75.992 C 444.254 77.443 443.743 78.478 442.94 79.097 C 442.673 79.302 442.374 79.462 442.055 79.571 C 441.748 79.67 441.433 79.747 441.115 79.801 C 440.16 79.973 438.878 80.059 437.269 80.059 L 437.269 82.5 L 461.195 82.5 C 461.197 82.226 461.176 81.952 461.13 81.681 C 460.967 80.768 460.501 80.26 459.73 80.157 C 459.536 80.108 459.306 80.078 459.039 80.065 C 458.944 80.061 458.849 80.059 458.754 80.059 Z" vector-effect="non-scaling-stroke" style="fill: rgb(255, 249, 249); stroke: rgb(255, 255, 255);"/>
    </g>
  </g>
</svg>