<?xml version="1.0" encoding="utf-8"?>
<svg width="1200pt" height="1200pt" version="1.1" viewBox="0 0 1200 1200" xmlns="http://www.w3.org/2000/svg">
  <g transform="matrix(1, 0, 0, 1, -1.879189, 78.985321)">
    <path d="m456.27 773.65s63.301-70.211 97.98-53.734c34.738 16.477 6.8633 46.129-18.996 52.895-13.992 3.625-69.312 29.293-69.254 12.086 0.058594-9.5195-9.7305-11.246-9.7305-11.246z"/>
    <path d="m624.71 552.64 32.93-22.609-5.3164 33.539 31.055-5.7227-24.406 33.406s5.2188 11.844 10.43 28.727c11.125 36.191 4.8828 82.066 0.15625 94.969-16.32 43.934-44.258 69.406-102.76 67.309-81.602-2.9766-74.508-102.74-74.508-102.74s4.3555-38.051 13.559-60.938c7.7656-19.273 21.707-59.113 60.961-71.004 36.684-11.098 57.898 5.0664 57.898 5.0664zm-1.7031 24.336c-7.8711 0-14.258 6.4062-14.258 14.281 0 7.8945 6.3828 14.23 14.258 14.23 7.8711 0 14.258-6.3359 14.258-14.23-0.015625-7.875-6.3867-14.281-14.258-14.281zm12.984 120.88c15.203-21.973 3.6133-61.094-33.469-51.035-37.066 10.02-26.016 103.05-26.016 103.05s44.207-30.059 59.484-52.02z"/>
    <path d="m255 711c-67.5 4.5-96.203 131.36-169.07 175.74-2.8672-10.453-17.242-7.2461-23.941-13.297 10.906-70.523 78.191-131.04 83.398-182.76-10.043 3.2266-13.559 11.914-29.688 10.055l2.6055-14.184-12.109-7.9492c98.195-107.2 248.55-334.5 428.35-258.62l47.23 1.9453-47.711 23.641c-78.07 91.438-111.07 229.44-198.07 256.44-54 10.5-69.84 8.2422-81 9zm235-282.5c-7.043 0-12.707 5.7109-12.707 12.805 0 7.0664 5.6641 12.707 12.707 12.707 7.1758 0 12.828-5.6406 12.828-12.707 0.011719-7.0938-5.6523-12.805-12.828-12.805zm-154.95 217.27c89.352-16.836 84.996-119.44 33.719-137.05-51.336-17.605-150.31 137.05-150.31 137.05 0.003907 0 27.23 16.848 116.59 0z" fill-rule="evenodd"/>
    <path d="m560 513c-3.6133 0-7.0195-2.1953-8.3984-5.7734-1.7773-4.6328 0.52734-9.8398 5.1719-11.629 12.852-4.9453 25.246-14.004 36.48-25.285-34.477-26.902-72.168-66.301-61.945-104.64 5.0508-18.949 17.891-28.859 35.281-26.965 9.4688 0.98438 19.812 5.6758 28.957 12.215 7.957-12.371 18.648-22.801 29.473-25.777 7.4883-2.0508 25.934-3.3945 35.594 28.211 8.3516 27.336-10.32 76.824-40.738 114.34 12.469 8.7344 24.098 15.828 32.461 20.41 4.3555 2.3867 5.9531 7.8594 3.5625 12.227-2.375 4.3555-7.8477 5.9531-12.215 3.5625-1.7891-0.98438-17.004-9.4336-35.785-22.715-13.586 13.934-28.824 25.117-44.664 31.211-1.0742 0.42188-2.168 0.61328-3.2344 0.61328zm2.5547-156.52c-7.0664 0-11.34 4.3672-13.871 13.836-7.5117 28.188 24.254 61.621 56.52 86.605 27.203-33.648 44.34-78.086 38.16-98.293-2.9141-9.5898-6.9492-15.695-10.766-16.332-3.8398-0.58984-11.449 3.6016-19.453 14.594-1.4883 2.0391-2.832 4.0938-4.043 6.1328 7.2109 8.0156 12.059 16.871 12.48 24.707 0.50391 9.5898-5.5195 16.895-15.73 19.066-11.352 2.4258-20.281-2.6406-22.777-12.863-1.7031-7.0195 0.046875-16.824 4.0781-26.867-5.6523-4.4414-12.277-8.2305-19.152-9.875-1.9648-0.47266-3.7773-0.71094-5.4453-0.71094zm38.617 25.344c-0.83984 3.4922-1.0312 6.2031-0.67188 7.668 0.26562-0.085938 0.82812-0.14453 1.6328-0.30078 1.3555-0.28906 1.8008-0.63672 1.8008-0.63672 0.21484-1.3047-0.80469-3.7539-2.7617-6.7305z"/>
    <path d="m867.77 703.99c-87-27-120-165-198.07-256.44l-47.723-23.641 47.258-1.9453c179.79-75.875 330.16 151.43 428.34 258.62l-12.121 7.9453 2.6055 14.184c-16.117 1.8594-19.633-6.8281-29.688-10.055 5.2188 51.73 72.504 112.25 83.398 182.76-6.6953 6.0586-21.059 2.8438-23.93 13.297-72.875-44.363-101.58-171.24-169.08-175.74-11.141-0.75-26.992 1.5078-80.992-8.9922zm-166.82-260.7c0 7.0664 5.6523 12.707 12.816 12.707 7.0547 0 12.707-5.6406 12.707-12.707 0-7.0938-5.6523-12.805-12.707-12.805-7.1641 0-12.816 5.7109-12.816 12.805zm284.36 204.47s-98.977-154.66-150.3-137.05c-51.277 17.617-55.645 120.21 33.719 137.05 89.367 16.848 116.58 0 116.58 0z" fill-rule="evenodd"/>
  </g>
  <g id="svgGroup" stroke-linecap="round" fill-rule="evenodd" font-size="9pt" stroke="#000" stroke-width="0.25mm" fill="#000" style="stroke: rgb(0, 0, 0); stroke-width: 0.25mm; fill: rgb(0, 0, 0);" transform="matrix(1, 0, 0, 1, 481.236969, 959.328003)">
    <g style="" transform="matrix(0.899627, 0, 0, 0.899627, 38.951092, -78.152016)">
      <path d="M -327.71 -628.201 L -327.71 -814.899 L -412.313 -814.899 L -412.313 -800.799 L -370.012 -800.799 L -370.012 -496.215 C -369.989 -492.752 -370.219 -489.295 -370.71 -485.865 C -371.969 -477.485 -374.921 -471.508 -379.558 -467.932 C -381.108 -466.747 -382.834 -465.824 -384.675 -465.194 C -386.45 -464.623 -388.268 -464.178 -390.106 -463.867 C -395.62 -462.871 -403.026 -462.376 -412.313 -462.376 L -412.313 -448.276 L -341.242 -448.276 L -336.166 -485.503 C -323.119 -463.78 -301.165 -448.906 -276.156 -444.852 C -271.755 -444.05 -267.308 -443.499 -262.844 -443.202 C -261.126 -442.98 -259.411 -442.825 -257.685 -442.728 C -256.587 -442.663 -255.484 -442.634 -254.38 -442.634 C -224.329 -442.121 -195.427 -454.18 -174.651 -475.902 C -173.376 -477.197 -172.128 -478.512 -170.903 -479.86 C -154.72 -498.51 -144.358 -521.503 -141.112 -545.98 C -139.893 -554.343 -139.293 -562.789 -139.316 -571.238 C -139.218 -584.495 -140.557 -597.726 -143.319 -610.692 C -147.171 -628.173 -153.819 -643.428 -163.258 -656.451 C -166.277 -660.617 -169.587 -664.557 -173.162 -668.252 C -189.346 -684.714 -211.53 -693.874 -234.611 -693.624 C -234.999 -693.633 -235.384 -693.633 -235.771 -693.633 C -248.478 -693.811 -261.109 -691.695 -273.066 -687.394 C -291.571 -680.458 -306.357 -667.739 -317.428 -649.233 C -319.531 -645.703 -321.456 -642.077 -323.195 -638.357 C -324.619 -635.805 -325.861 -633.152 -326.914 -630.427 C -327.195 -629.695 -327.461 -628.949 -327.71 -628.201 Z M -222.555 -662.807 C -231.775 -668.472 -242.436 -671.343 -253.253 -671.071 C -268.669 -671.071 -282.399 -665.81 -294.43 -655.28 C -303.55 -646.946 -310.834 -636.803 -315.807 -625.496 C -320.263 -615.657 -323.529 -604.483 -325.597 -591.972 C -327.45 -580.263 -328.346 -568.425 -328.27 -556.573 C -328.305 -547.383 -327.682 -538.2 -326.411 -529.098 C -325.129 -519.822 -322.917 -510.695 -319.81 -501.858 C -312.752 -483.648 -302.661 -470.947 -289.538 -463.761 C -280.459 -458.951 -270.298 -456.531 -260.025 -456.739 C -259.514 -456.739 -259 -456.739 -258.495 -456.751 C -248.586 -456.865 -238.857 -459.379 -230.129 -464.067 C -228.803 -464.801 -227.5 -465.576 -226.229 -466.396 C -206.853 -478.86 -194.7 -500.746 -189.775 -532.041 C -188.024 -543.71 -187.184 -555.493 -187.261 -567.288 C -187.238 -575.177 -187.652 -583.061 -188.502 -590.903 C -189.357 -598.925 -190.829 -606.867 -192.903 -614.663 C -193.215 -615.929 -193.551 -617.187 -193.896 -618.443 C -199.805 -639.622 -209.359 -654.415 -222.555 -662.807 Z" vector-effect="non-scaling-stroke" style="transform-box: fill-box; transform-origin: 50% 50%;"/>
      <path d="M -23.447 -526.758 L -23.449 -538.13 L -23.449 -722.336 L -94.825 -722.336 L -94.825 -710.822 L -57.986 -710.822 L -57.986 -565.758 C -57.986 -558.568 -57.839 -526.623 -57.839 -526.623 C -57.839 -526.623 -21.914 -526.758 -23.447 -526.758 Z M -17.923 -789.568 C -17.876 -792.902 -18.418 -796.217 -19.53 -799.357 C -21.374 -804.36 -24.793 -808.341 -29.791 -811.306 C -30.574 -811.77 -31.377 -812.198 -32.198 -812.594 C -33.946 -813.33 -35.758 -813.91 -37.611 -814.32 C -39.312 -814.697 -41.048 -814.892 -42.789 -814.896 C -46.197 -814.948 -49.587 -814.359 -52.782 -813.155 C -57.43 -811.341 -61.189 -808.096 -64.056 -803.432 C -64.701 -802.375 -65.292 -801.282 -65.815 -800.158 C -67.338 -796.834 -68.121 -793.223 -68.115 -789.568 C -68.115 -779.19 -63.886 -771.752 -55.422 -767.268 C -54.606 -766.839 -53.77 -766.443 -52.923 -766.084 C -49.541 -764.852 -46.164 -764.241 -42.789 -764.241 C -39.539 -764.192 -36.308 -764.73 -33.254 -765.83 C -27.458 -767.993 -23.115 -772.379 -20.224 -778.977 C -18.701 -782.301 -17.918 -785.914 -17.923 -789.568 Z" vector-effect="non-scaling-stroke" style="transform-origin: 48.622px -673.974px;"/>
      <path d="M 159.356 -578.093 L 159.321 -591.728 L 159.321 -701.476 C 159.209 -713.578 160.762 -725.642 163.935 -737.32 C 168.572 -754.277 177.634 -769.695 190.2 -781.989 C 196.55 -788.048 202.105 -791.844 206.865 -793.375 C 208.08 -793.774 209.333 -794.031 210.611 -794.125 C 213.563 -794.085 216.421 -793.092 218.765 -791.298 C 221.708 -789.168 224.504 -785.83 227.157 -781.294 C 227.344 -780.98 227.525 -780.663 227.706 -780.342 C 228.969 -778.11 230.331 -775.942 231.782 -773.83 C 234.629 -769.729 237.385 -766.724 240.044 -764.816 C 241.315 -763.873 242.738 -763.157 244.25 -762.694 C 246.347 -761.982 248.549 -761.611 250.763 -761.588 C 250.796 -761.588 250.835 -761.588 250.869 -761.588 C 253.703 -761.546 256.521 -761.971 259.217 -762.852 C 265.508 -765.007 269.71 -769.916 271.827 -777.579 C 272.538 -779.68 272.911 -781.877 272.928 -784.097 C 272.928 -784.131 272.928 -784.163 272.928 -784.197 C 272.989 -788.321 272.352 -792.421 271.031 -796.329 C 267.669 -805.794 259.845 -811.858 247.562 -814.528 C 245.352 -814.974 243.122 -815.293 240.88 -815.479 C 239.615 -815.579 238.35 -815.637 237.08 -815.637 C 215.021 -815.637 195.351 -806.263 178.071 -787.509 C 169.984 -778.681 163.552 -768.759 158.768 -757.729 L 156.56 -812.326 L 76.596 -812.326 L 76.596 -798.538 L 117.956 -798.538 L 116.967 -578.365 C 116.929 -578.009 159.891 -578.093 159.356 -578.093 Z" vector-effect="non-scaling-stroke" style="transform-origin: 87.35px -754.409px;"/>
      <path d="M 444.9 -530.849 L 449.096 -475.227 L 524.136 -475.227 C 524.148 -476.701 524.034 -478.173 523.788 -479.629 C 522.913 -484.534 520.407 -487.265 516.264 -487.818 C 515.221 -488.081 513.986 -488.241 512.552 -488.312 C 512.04 -488.335 511.532 -488.344 511.018 -488.344 L 484.782 -488.344 L 483.729 -816.31 L 394.524 -816.31 L 394.524 -803.192 L 444.375 -803.192 L 444.375 -675.157 C 430.458 -690.503 411.403 -700.23 390.813 -702.496 C 385.606 -703.172 380.362 -703.502 375.109 -703.492 C 360.86 -703.705 346.719 -700.925 333.611 -695.329 C 318.26 -688.553 305.235 -677.57 294.532 -662.368 C 292.194 -659.035 290.016 -655.601 288.003 -652.067 C 277.583 -633.508 271.586 -612.798 270.474 -591.541 C 270.264 -588.107 270.158 -584.664 270.158 -581.222 C 270.158 -548.924 277.723 -523.115 292.859 -503.809 C 298.098 -497.142 304.239 -491.23 311.091 -486.243 C 325.91 -475.584 343.731 -469.887 361.989 -469.978 C 400.124 -470.679 427.76 -490.967 444.9 -530.849 Z M 317.1 -620.315 C 315.472 -609.462 314.691 -598.499 314.762 -587.521 C 314.745 -580.182 315.126 -572.852 315.918 -565.556 C 316.713 -558.091 318.083 -550.699 320.011 -543.443 C 320.301 -542.266 320.614 -541.096 320.935 -539.93 C 326.434 -520.225 335.319 -506.464 347.6 -498.657 C 356.175 -493.387 366.094 -490.716 376.157 -490.967 C 382.698 -490.935 389.191 -492.069 395.326 -494.327 C 402.408 -497.011 408.909 -501.038 414.465 -506.185 C 422.938 -513.917 429.71 -523.326 434.354 -533.815 C 438.5 -542.921 441.536 -553.255 443.461 -564.813 C 445.185 -575.619 446.019 -586.55 445.948 -597.494 C 445.948 -598.391 445.943 -599.293 445.932 -600.194 C 445.814 -608.838 445.121 -616.983 443.858 -624.619 C 442.505 -633.121 440.215 -641.449 437.029 -649.443 C 430.652 -665.483 421.735 -676.811 410.286 -683.421 C 401.795 -688.176 392.188 -690.573 382.456 -690.374 C 381.982 -690.374 381.504 -690.368 381.033 -690.358 C 371.816 -690.249 362.763 -687.912 354.644 -683.549 C 353.412 -682.873 352.197 -682.148 351.016 -681.389 C 332.989 -669.788 321.682 -649.434 317.1 -620.315 Z" vector-effect="non-scaling-stroke" style="transform-origin: 69.968px -643.138px;"/>
    </g>
    <path d="M -156.699 81.587 L -181.257 81.587 L -181.257 -49.966 L -140.913 -49.966 L -140.913 -58.739 L -181.257 -58.739 L -181.257 -60.844 C -181.257 -100.837 -175.291 -123.523 -163.364 -128.899 C -161.022 -129.952 -158.499 -130.541 -155.935 -130.631 C -155.605 -130.646 -155.273 -130.653 -154.944 -130.653 C -147.694 -130.653 -141.612 -126.328 -136.702 -117.674 C -135.969 -116.366 -135.218 -115.07 -134.457 -113.782 C -132.1 -109.822 -130.2 -107.044 -128.756 -105.453 C -128.396 -105.047 -128.005 -104.678 -127.58 -104.344 C -125.71 -102.938 -123.605 -102.238 -121.267 -102.238 C -114.415 -102.238 -110.053 -104.817 -108.179 -109.976 C -107.93 -110.655 -107.734 -111.352 -107.585 -112.059 C -107.35 -113.231 -107.234 -114.283 -107.234 -115.217 C -107.234 -122.541 -111.42 -128.523 -119.792 -133.165 C -121.406 -134.052 -123.069 -134.852 -124.776 -135.564 C -131.558 -138.14 -139.159 -139.426 -147.58 -139.426 C -154.904 -139.519 -162.192 -138.323 -169.104 -135.89 C -180.604 -131.69 -189.799 -123.746 -196.688 -112.059 C -200.44 -105.398 -203.184 -98.218 -204.826 -90.754 C -206.651 -82.778 -207.568 -73.977 -207.568 -64.35 L -207.568 -58.739 L -232.123 -58.739 L -232.123 -49.966 L -207.568 -49.966 L -207.568 60.541 C -207.553 62.695 -207.696 64.848 -208.001 66.977 C -208.785 72.19 -210.616 75.908 -213.505 78.132 C -214.465 78.868 -215.539 79.442 -216.688 79.833 C -217.791 80.19 -218.918 80.467 -220.066 80.66 C -223.496 81.279 -228.101 81.587 -233.877 81.587 L -233.877 90.355 L -147.928 90.355 C -147.917 89.372 -147.996 88.388 -148.16 87.414 C -148.743 84.134 -150.421 82.31 -153.19 81.939 C -153.887 81.762 -154.713 81.655 -155.676 81.608 C -156.017 81.593 -156.359 81.587 -156.699 81.587 Z M 352.677 53.172 L 355.487 90.355 L 405.648 90.355 C 405.659 89.372 405.58 88.388 405.416 87.414 C 404.833 84.134 403.156 82.31 400.39 81.939 C 399.693 81.762 398.864 81.655 397.904 81.608 C 397.563 81.593 397.222 81.587 396.88 81.587 L 379.339 81.587 L 378.638 -137.669 L 318.999 -137.669 L 318.999 -128.899 L 352.329 -128.899 L 352.329 -43.303 C 343.024 -53.562 330.29 -60.064 316.52 -61.58 C 313.039 -62.033 309.534 -62.253 306.021 -62.244 C 296.494 -62.388 287.043 -60.531 278.277 -56.787 C 268.017 -52.258 259.31 -44.916 252.155 -34.752 C 250.591 -32.526 249.133 -30.23 247.786 -27.868 C 240.82 -15.459 236.812 -1.612 236.067 12.597 C 235.926 14.893 235.859 17.195 235.859 19.494 C 235.859 41.088 240.917 58.341 251.032 71.249 C 254.535 75.706 258.638 79.658 263.222 82.991 C 273.132 90.12 285.045 93.926 297.252 93.865 C 322.742 93.398 341.218 79.833 352.677 53.172 Z M -47.247 -62.244 C -57.657 -62.362 -67.992 -60.459 -77.677 -56.638 C -87.379 -52.66 -96.138 -46.683 -103.376 -39.093 C -116.258 -25.844 -123.63 -8.196 -123.992 10.284 C -124.047 11.598 -124.071 12.916 -124.075 14.232 C -124.176 23.578 -122.904 32.89 -120.303 41.867 C -115.641 57.706 -105.545 71.397 -91.798 80.535 C -79.006 89.329 -63.821 93.981 -48.298 93.865 C -38.057 93.987 -27.892 92.084 -18.39 88.269 C -8.529 84.151 0.301 77.919 7.482 70.008 C 21.047 55.511 27.829 37.388 27.829 15.637 C 27.926 6.663 26.741 -2.279 24.316 -10.919 C 19.742 -27.07 9.379 -40.971 -4.796 -49.966 C -17.66 -58.152 -31.81 -62.244 -47.247 -62.244 Z M 132.721 -62.244 C 122.31 -62.362 111.975 -60.459 102.286 -56.638 C 92.583 -52.66 83.829 -46.683 76.592 -39.093 C 63.71 -25.844 56.337 -8.196 55.974 10.284 C 55.921 11.598 55.896 12.916 55.891 14.232 C 55.792 23.578 57.063 32.89 59.664 41.867 C 64.327 57.706 74.418 71.397 88.166 80.535 C 100.961 89.329 116.146 93.983 131.669 93.865 C 141.91 93.987 152.075 92.084 161.577 88.269 C 171.435 84.151 180.265 77.919 187.446 70.008 C 201.009 55.511 207.793 37.388 207.793 15.637 C 207.89 6.663 206.704 -2.279 204.279 -10.919 C 199.706 -27.07 189.342 -40.971 175.167 -49.966 C 162.306 -58.152 148.157 -62.244 132.721 -62.244 Z M -92.828 -6.122 C -93.82 1.088 -94.298 8.358 -94.255 15.637 C -94.259 20.008 -94.09 24.376 -93.749 28.73 C -93.375 33.522 -92.725 38.285 -91.798 42.998 C -87.71 61.855 -79.667 74.374 -67.664 80.563 C -61.32 83.696 -54.315 85.248 -47.247 85.094 C -42.861 85.1 -38.493 84.511 -34.267 83.34 C -29.098 81.745 -24.345 79.029 -20.347 75.39 C -11.597 67.423 -5.975 54.727 -3.482 37.305 C -2.439 29.661 -1.941 21.948 -1.991 14.232 C -1.991 7.449 -2.339 1.252 -3.043 -4.362 C -3.376 -7.002 -3.808 -9.628 -4.33 -12.237 C -8.015 -30.591 -15.77 -42.813 -27.597 -48.917 C -34.027 -52.078 -41.129 -53.644 -48.298 -53.475 C -53.799 -53.494 -59.263 -52.542 -64.436 -50.667 C -68.372 -49.105 -72.022 -46.903 -75.237 -44.144 C -84.441 -36.226 -90.308 -23.552 -92.828 -6.122 Z M 87.138 -6.122 C 86.147 1.088 85.669 8.358 85.712 15.637 C 85.705 20.008 85.874 24.372 86.215 28.73 C 86.588 33.522 87.239 38.285 88.166 42.998 C 92.254 61.855 100.296 74.374 112.302 80.563 C 118.646 83.696 125.65 85.248 132.721 85.094 C 137.107 85.1 141.475 84.511 145.7 83.34 C 150.869 81.745 155.622 79.029 159.619 75.39 C 168.37 67.423 173.993 54.727 176.485 37.305 C 177.527 29.661 178.023 21.948 177.973 14.232 C 177.973 7.449 177.624 1.252 176.925 -4.362 C 176.589 -7.002 176.158 -9.628 175.638 -12.237 C 171.952 -30.591 164.192 -42.813 152.367 -48.917 C 145.937 -52.078 138.835 -53.644 131.669 -53.475 C 126.168 -53.494 120.705 -52.542 115.532 -50.667 C 111.594 -49.105 107.945 -46.903 104.73 -44.144 C 95.526 -36.226 89.659 -23.552 87.138 -6.122 Z M 267.242 -6.639 C 266.156 0.617 265.632 7.948 265.679 15.285 C 265.668 20.192 265.923 25.091 266.448 29.97 C 266.982 34.96 267.895 39.902 269.186 44.752 C 269.382 45.539 269.591 46.321 269.806 47.101 C 273.481 60.275 279.422 69.474 287.628 74.694 C 293.365 78.218 299.996 80.003 306.72 79.833 C 311.095 79.859 315.436 79.098 319.538 77.589 C 324.273 75.792 328.616 73.102 332.33 69.66 C 337.995 64.491 342.521 58.201 345.625 51.188 C 348.398 45.101 350.428 38.192 351.714 30.465 C 352.872 23.242 353.428 15.934 353.382 8.618 C 353.382 8.018 353.377 7.413 353.366 6.813 C 353.288 1.034 352.828 -4.413 351.98 -9.516 C 351.074 -15.201 349.545 -20.765 347.413 -26.114 C 343.155 -36.837 337.195 -44.408 329.535 -48.828 C 323.86 -52.003 317.437 -53.609 310.93 -53.475 C 310.616 -53.475 310.299 -53.473 309.982 -53.465 C 303.822 -53.394 297.769 -51.832 292.337 -48.914 C 291.515 -48.458 290.71 -47.977 289.915 -47.47 C 277.859 -39.715 270.302 -26.106 267.242 -6.639 Z" vector-effect="non-scaling-stroke" style=""/>
  </g>
</svg>