<?xml version="1.0" encoding="utf-8"?>
<svg width="1200pt" height="1200pt" version="1.1" viewBox="0 0 1200 1200" xmlns="http://www.w3.org/2000/svg">
  <rect width="1800" height="1800" fill="#FFFFFF" x="-300" y="-300" style=""/>
  <g fill="#000000">
    <path d="M 86.289 1046.222 C 86.289 1046.222 372.66 769.568 529.547 834.493 C 686.7 899.419 560.594 1016.256 443.61 1042.917 C 380.311 1057.2 130.045 1158.341 130.309 1090.54 C 130.571 1053.032 86.286 1046.226 86.286 1046.226 L 86.289 1046.222 Z" style=""/>
    <path d="M 848.303 175.373 L 997.276 86.285 L 973.223 218.441 L 1113.715 195.893 L 1003.303 327.523 C 1003.303 327.523 1026.914 374.192 1050.488 440.717 C 1100.817 583.322 1072.578 764.084 1051.198 814.926 C 977.367 988.039 850.977 1088.409 586.318 1080.145 C 217.154 1068.414 249.248 675.316 249.248 675.316 C 249.248 675.316 268.949 525.382 310.587 435.201 C 345.716 359.259 408.788 202.277 586.372 155.422 C 752.328 111.692 848.299 175.384 848.299 175.384 L 848.303 175.373 Z M 840.599 271.263 C 804.991 271.263 776.098 296.506 776.098 327.536 C 776.098 358.644 804.973 383.605 840.599 383.605 C 876.207 383.605 905.102 358.64 905.102 327.536 C 905.03 296.506 876.207 271.263 840.599 271.263 Z M 899.339 747.569 C 968.115 660.99 915.682 506.84 747.926 546.475 C 580.242 585.957 630.231 952.525 630.231 952.525 C 630.231 952.525 830.221 834.084 899.333 747.55 L 899.339 747.569 Z" style=""/>
  </g>
</svg>
